ISO-10303-21;
HEADER;
/* Generated by software containing ST-Developer
 * from STEP Tools, Inc. (www.steptools.com) 
 */
/* OPTION: using custom renumber hook */

FILE_DESCRIPTION(
/* description */ ('STEP AP203'),
/* implementation_level */ '2;1');

FILE_NAME(
/* name */ '03194-01508070ENTRIEGELN',
/* time_stamp */ '2026-04-15T00:03:25+02:00',
/* author */ ('License CC BY-ND 4.0'),
/* organization */ ('CADENAS'),
/* preprocessor_version */ 'ST-DEVELOPER v20',
/* originating_system */ 'PARTsolutions',
/* authorisation */ '  ');

FILE_SCHEMA (('CONFIG_CONTROL_DESIGN'));
ENDSEC;

DATA;
#10=PROPERTY_DEFINITION_REPRESENTATION(#14,#12);
#11=PROPERTY_DEFINITION_REPRESENTATION(#15,#13);
#12=REPRESENTATION('',(#16),#720);
#13=REPRESENTATION('',(#17),#720);
#14=PROPERTY_DEFINITION('pmi validation property','',#725);
#15=PROPERTY_DEFINITION('pmi validation property','',#725);
#16=VALUE_REPRESENTATION_ITEM('number of annotations',COUNT_MEASURE(0.));
#17=VALUE_REPRESENTATION_ITEM('number of views',COUNT_MEASURE(0.));
#18=SHAPE_REPRESENTATION_RELATIONSHIP('','',#384,#19);
#19=ADVANCED_BREP_SHAPE_REPRESENTATION('',(#382),#720);
#20=SPHERICAL_SURFACE('',#421,1.575);
#21=SPHERICAL_SURFACE('',#426,1.575);
#22=TOROIDAL_SURFACE('',#401,6.73,0.779999999999999);
#23=TOROIDAL_SURFACE('',#431,3.95,1.2);
#24=TOROIDAL_SURFACE('',#433,3.95,1.2);
#25=TOROIDAL_SURFACE('',#440,12.69,1.2);
#26=CONICAL_SURFACE('',#396,3.,0.785398163397458);
#27=CONICAL_SURFACE('',#405,5.95,0.0626573201465964);
#28=CONICAL_SURFACE('',#408,4.,0.349065850398865);
#29=CONICAL_SURFACE('',#414,1.725,0.785398163397434);
#30=PLANE('',#392);
#31=PLANE('',#398);
#32=PLANE('',#399);
#33=PLANE('',#407);
#34=PLANE('',#410);
#35=PLANE('',#416);
#36=PLANE('',#419);
#37=PLANE('',#424);
#38=PLANE('',#435);
#39=PLANE('',#444);
#40=PLANE('',#446);
#41=PLANE('',#449);
#42=B_SPLINE_CURVE_WITH_KNOTS('',3,(#586,#587,#588,#589,#590,#591,#592,
#593,#594,#595,#596),.UNSPECIFIED.,.T.,.F.,(1,1,1,1,1,1,1,1,1,1,1,1,1,1,
1),(-0.00281798770887884,-0.00187865847258589,-0.000939329236292946,0.,
0.000939329236292946,0.00187865847258589,0.00281798770887884,0.00375731694517178,
0.00469664618146473,0.00563597541775768,0.00657530465405062,0.00751463389034357,
0.00845396312663652,0.00939329236292946,0.0103326215992224),
 .UNSPECIFIED.);
#43=B_SPLINE_CURVE_WITH_KNOTS('',3,(#598,#599,#600,#601,#602,#603,#604,
#605,#606,#607,#608),.UNSPECIFIED.,.T.,.F.,(1,1,1,1,1,1,1,1,1,1,1,1,1,1,
1),(-0.00281798770887884,-0.00187865847258589,-0.000939329236292946,0.,
0.000939329236292946,0.00187865847258589,0.00281798770887884,0.00375731694517179,
0.00469664618146473,0.00563597541775768,0.00657530465405062,0.00751463389034357,
0.00845396312663652,0.00939329236292946,0.0103326215992224),
 .UNSPECIFIED.);
#44=B_SPLINE_CURVE_WITH_KNOTS('',3,(#615,#616,#617,#618,#619,#620,#621,
#622,#623,#624,#625),.UNSPECIFIED.,.T.,.F.,(1,1,1,1,1,1,1,1,1,1,1,1,1,1,
1),(-0.00379062437489315,-0.00252708291659544,-0.00126354145829772,0.,0.00126354145829772,
0.00252708291659544,0.00379062437489315,0.00505416583319087,0.00631770729148859,
0.00758124874978631,0.00884479020808403,0.0101083316663817,0.0113718731246795,
0.0126354145829772,0.0138989560412749),.UNSPECIFIED.);
#45=B_SPLINE_CURVE_WITH_KNOTS('',3,(#627,#628,#629,#630,#631,#632,#633,
#634,#635,#636,#637),.UNSPECIFIED.,.T.,.F.,(1,1,1,1,1,1,1,1,1,1,1,1,1,1,
1),(-0.0037899399940917,-0.0025266266627278,-0.0012633133313639,0.,0.0012633133313639,
0.0025266266627278,0.0037899399940917,0.0050532533254556,0.0063165666568195,
0.0075798799881834,0.0088431933195473,0.0101065066509112,0.0113698199822751,
0.012633133313639,0.0138964466450029),.UNSPECIFIED.);
#46=ORIENTED_EDGE('',*,*,#116,.F.);
#47=ORIENTED_EDGE('',*,*,#117,.T.);
#48=ORIENTED_EDGE('',*,*,#118,.F.);
#49=ORIENTED_EDGE('',*,*,#119,.F.);
#50=ORIENTED_EDGE('',*,*,#120,.T.);
#51=ORIENTED_EDGE('',*,*,#121,.F.);
#52=ORIENTED_EDGE('',*,*,#122,.F.);
#53=ORIENTED_EDGE('',*,*,#123,.F.);
#54=ORIENTED_EDGE('',*,*,#124,.F.);
#55=ORIENTED_EDGE('',*,*,#125,.F.);
#56=ORIENTED_EDGE('',*,*,#124,.T.);
#57=ORIENTED_EDGE('',*,*,#126,.F.);
#58=ORIENTED_EDGE('',*,*,#125,.T.);
#59=ORIENTED_EDGE('',*,*,#117,.F.);
#60=ORIENTED_EDGE('',*,*,#126,.T.);
#61=ORIENTED_EDGE('',*,*,#127,.F.);
#62=ORIENTED_EDGE('',*,*,#116,.T.);
#63=ORIENTED_EDGE('',*,*,#128,.F.);
#64=ORIENTED_EDGE('',*,*,#127,.T.);
#65=ORIENTED_EDGE('',*,*,#129,.F.);
#66=ORIENTED_EDGE('',*,*,#128,.T.);
#67=ORIENTED_EDGE('',*,*,#130,.F.);
#68=ORIENTED_EDGE('',*,*,#129,.T.);
#69=ORIENTED_EDGE('',*,*,#120,.F.);
#70=ORIENTED_EDGE('',*,*,#130,.T.);
#71=ORIENTED_EDGE('',*,*,#131,.F.);
#72=ORIENTED_EDGE('',*,*,#121,.T.);
#73=ORIENTED_EDGE('',*,*,#132,.F.);
#74=ORIENTED_EDGE('',*,*,#131,.T.);
#75=ORIENTED_EDGE('',*,*,#133,.F.);
#76=ORIENTED_EDGE('',*,*,#132,.T.);
#77=ORIENTED_EDGE('',*,*,#134,.F.);
#78=ORIENTED_EDGE('',*,*,#133,.T.);
#79=ORIENTED_EDGE('',*,*,#134,.T.);
#80=ORIENTED_EDGE('',*,*,#135,.T.);
#81=ORIENTED_EDGE('',*,*,#122,.T.);
#82=ORIENTED_EDGE('',*,*,#136,.F.);
#83=ORIENTED_EDGE('',*,*,#135,.F.);
#84=ORIENTED_EDGE('',*,*,#136,.T.);
#85=ORIENTED_EDGE('',*,*,#137,.F.);
#86=ORIENTED_EDGE('',*,*,#123,.T.);
#87=ORIENTED_EDGE('',*,*,#138,.F.);
#88=ORIENTED_EDGE('',*,*,#137,.T.);
#89=ORIENTED_EDGE('',*,*,#138,.T.);
#90=ORIENTED_EDGE('',*,*,#139,.F.);
#91=ORIENTED_EDGE('',*,*,#118,.T.);
#92=ORIENTED_EDGE('',*,*,#140,.T.);
#93=ORIENTED_EDGE('',*,*,#119,.T.);
#94=ORIENTED_EDGE('',*,*,#139,.T.);
#95=ORIENTED_EDGE('',*,*,#141,.F.);
#96=ORIENTED_EDGE('',*,*,#142,.T.);
#97=ORIENTED_EDGE('',*,*,#140,.F.);
#98=ORIENTED_EDGE('',*,*,#143,.F.);
#99=ORIENTED_EDGE('',*,*,#144,.T.);
#100=ORIENTED_EDGE('',*,*,#141,.T.);
#101=ORIENTED_EDGE('',*,*,#145,.T.);
#102=ORIENTED_EDGE('',*,*,#143,.T.);
#103=ORIENTED_EDGE('',*,*,#146,.T.);
#104=ORIENTED_EDGE('',*,*,#147,.T.);
#105=ORIENTED_EDGE('',*,*,#144,.F.);
#106=ORIENTED_EDGE('',*,*,#148,.F.);
#107=ORIENTED_EDGE('',*,*,#149,.T.);
#108=ORIENTED_EDGE('',*,*,#147,.F.);
#109=ORIENTED_EDGE('',*,*,#145,.F.);
#110=ORIENTED_EDGE('',*,*,#148,.T.);
#111=ORIENTED_EDGE('',*,*,#149,.F.);
#112=ORIENTED_EDGE('',*,*,#150,.F.);
#113=ORIENTED_EDGE('',*,*,#142,.F.);
#114=ORIENTED_EDGE('',*,*,#146,.F.);
#115=ORIENTED_EDGE('',*,*,#150,.T.);
#116=EDGE_CURVE('',#151,#151,#182,.T.);
#117=EDGE_CURVE('',#152,#152,#183,.T.);
#118=EDGE_CURVE('',#153,#153,#42,.T.);
#119=EDGE_CURVE('',#154,#154,#43,.T.);
#120=EDGE_CURVE('',#155,#155,#184,.T.);
#121=EDGE_CURVE('',#156,#156,#185,.T.);
#122=EDGE_CURVE('',#157,#157,#44,.T.);
#123=EDGE_CURVE('',#158,#158,#45,.T.);
#124=EDGE_CURVE('',#159,#159,#186,.T.);
#125=EDGE_CURVE('',#160,#160,#187,.T.);
#126=EDGE_CURVE('',#161,#161,#188,.T.);
#127=EDGE_CURVE('',#162,#162,#189,.T.);
#128=EDGE_CURVE('',#163,#163,#190,.T.);
#129=EDGE_CURVE('',#164,#164,#191,.T.);
#130=EDGE_CURVE('',#165,#165,#192,.T.);
#131=EDGE_CURVE('',#166,#166,#193,.T.);
#132=EDGE_CURVE('',#167,#167,#194,.T.);
#133=EDGE_CURVE('',#168,#168,#195,.T.);
#134=EDGE_CURVE('',#169,#169,#196,.T.);
#135=EDGE_CURVE('',#170,#170,#197,.T.);
#136=EDGE_CURVE('',#171,#171,#198,.T.);
#137=EDGE_CURVE('',#172,#172,#199,.T.);
#138=EDGE_CURVE('',#173,#173,#200,.T.);
#139=EDGE_CURVE('',#174,#174,#201,.T.);
#140=EDGE_CURVE('',#175,#175,#202,.T.);
#141=EDGE_CURVE('',#176,#176,#203,.T.);
#142=EDGE_CURVE('',#177,#177,#204,.T.);
#143=EDGE_CURVE('',#178,#179,#205,.T.);
#144=EDGE_CURVE('',#178,#179,#206,.T.);
#145=EDGE_CURVE('',#179,#178,#207,.T.);
#146=EDGE_CURVE('',#180,#181,#208,.T.);
#147=EDGE_CURVE('',#181,#180,#209,.T.);
#148=EDGE_CURVE('',#179,#178,#210,.T.);
#149=EDGE_CURVE('',#181,#180,#211,.T.);
#150=EDGE_CURVE('',#180,#181,#212,.T.);
#151=VERTEX_POINT('',#583);
#152=VERTEX_POINT('',#585);
#153=VERTEX_POINT('',#597);
#154=VERTEX_POINT('',#609);
#155=VERTEX_POINT('',#612);
#156=VERTEX_POINT('',#614);
#157=VERTEX_POINT('',#626);
#158=VERTEX_POINT('',#638);
#159=VERTEX_POINT('',#641);
#160=VERTEX_POINT('',#644);
#161=VERTEX_POINT('',#647);
#162=VERTEX_POINT('',#651);
#163=VERTEX_POINT('',#654);
#164=VERTEX_POINT('',#657);
#165=VERTEX_POINT('',#660);
#166=VERTEX_POINT('',#664);
#167=VERTEX_POINT('',#667);
#168=VERTEX_POINT('',#670);
#169=VERTEX_POINT('',#673);
#170=VERTEX_POINT('',#677);
#171=VERTEX_POINT('',#680);
#172=VERTEX_POINT('',#684);
#173=VERTEX_POINT('',#687);
#174=VERTEX_POINT('',#691);
#175=VERTEX_POINT('',#694);
#176=VERTEX_POINT('',#697);
#177=VERTEX_POINT('',#700);
#178=VERTEX_POINT('',#703);
#179=VERTEX_POINT('',#704);
#180=VERTEX_POINT('',#710);
#181=VERTEX_POINT('',#711);
#182=CIRCLE('',#387,7.5);
#183=CIRCLE('',#388,7.5);
#184=CIRCLE('',#390,4.);
#185=CIRCLE('',#391,4.);
#186=CIRCLE('',#393,3.);
#187=CIRCLE('',#395,3.);
#188=CIRCLE('',#397,3.3);
#189=CIRCLE('',#400,6.73);
#190=CIRCLE('',#402,5.95);
#191=CIRCLE('',#404,5.95);
#192=CIRCLE('',#406,5.72476539099662);
#193=CIRCLE('',#409,3.42674688103073);
#194=CIRCLE('',#411,1.725);
#195=CIRCLE('',#413,1.725);
#196=CIRCLE('',#415,1.525);
#197=CIRCLE('',#418,1.59999999999996);
#198=CIRCLE('',#420,1.2168093523638);
#199=CIRCLE('',#423,1.59999999999999);
#200=CIRCLE('',#425,1.2168093523638);
#201=CIRCLE('',#428,1.2);
#202=CIRCLE('',#430,1.2);
#203=CIRCLE('',#432,1.2);
#204=CIRCLE('',#434,1.2);
#205=CIRCLE('',#436,1.2);
#206=CIRCLE('',#437,1.2);
#207=CIRCLE('',#439,1.2);
#208=CIRCLE('',#441,1.2);
#209=CIRCLE('',#442,1.2);
#210=CIRCLE('',#443,1.2);
#211=CIRCLE('',#445,1.19999999999999);
#212=CIRCLE('',#448,1.19999999999999);
#213=EDGE_LOOP('',(#46));
#214=EDGE_LOOP('',(#47));
#215=EDGE_LOOP('',(#48));
#216=EDGE_LOOP('',(#49));
#217=EDGE_LOOP('',(#50));
#218=EDGE_LOOP('',(#51));
#219=EDGE_LOOP('',(#52));
#220=EDGE_LOOP('',(#53));
#221=EDGE_LOOP('',(#54));
#222=EDGE_LOOP('',(#55));
#223=EDGE_LOOP('',(#56));
#224=EDGE_LOOP('',(#57));
#225=EDGE_LOOP('',(#58));
#226=EDGE_LOOP('',(#59));
#227=EDGE_LOOP('',(#60));
#228=EDGE_LOOP('',(#61));
#229=EDGE_LOOP('',(#62));
#230=EDGE_LOOP('',(#63));
#231=EDGE_LOOP('',(#64));
#232=EDGE_LOOP('',(#65));
#233=EDGE_LOOP('',(#66));
#234=EDGE_LOOP('',(#67));
#235=EDGE_LOOP('',(#68));
#236=EDGE_LOOP('',(#69));
#237=EDGE_LOOP('',(#70));
#238=EDGE_LOOP('',(#71));
#239=EDGE_LOOP('',(#72));
#240=EDGE_LOOP('',(#73));
#241=EDGE_LOOP('',(#74));
#242=EDGE_LOOP('',(#75));
#243=EDGE_LOOP('',(#76));
#244=EDGE_LOOP('',(#77));
#245=EDGE_LOOP('',(#78));
#246=EDGE_LOOP('',(#79));
#247=EDGE_LOOP('',(#80));
#248=EDGE_LOOP('',(#81));
#249=EDGE_LOOP('',(#82));
#250=EDGE_LOOP('',(#83));
#251=EDGE_LOOP('',(#84));
#252=EDGE_LOOP('',(#85));
#253=EDGE_LOOP('',(#86));
#254=EDGE_LOOP('',(#87));
#255=EDGE_LOOP('',(#88));
#256=EDGE_LOOP('',(#89));
#257=EDGE_LOOP('',(#90));
#258=EDGE_LOOP('',(#91));
#259=EDGE_LOOP('',(#92));
#260=EDGE_LOOP('',(#93));
#261=EDGE_LOOP('',(#94));
#262=EDGE_LOOP('',(#95));
#263=EDGE_LOOP('',(#96));
#264=EDGE_LOOP('',(#97));
#265=EDGE_LOOP('',(#98,#99));
#266=EDGE_LOOP('',(#100));
#267=EDGE_LOOP('',(#101,#102));
#268=EDGE_LOOP('',(#103,#104));
#269=EDGE_LOOP('',(#105,#106));
#270=EDGE_LOOP('',(#107,#108));
#271=EDGE_LOOP('',(#109,#110));
#272=EDGE_LOOP('',(#111,#112));
#273=EDGE_LOOP('',(#113));
#274=EDGE_LOOP('',(#114,#115));
#275=FACE_BOUND('',#213,.T.);
#276=FACE_BOUND('',#214,.T.);
#277=FACE_BOUND('',#215,.T.);
#278=FACE_BOUND('',#216,.T.);
#279=FACE_BOUND('',#217,.T.);
#280=FACE_BOUND('',#218,.T.);
#281=FACE_BOUND('',#219,.T.);
#282=FACE_BOUND('',#220,.T.);
#283=FACE_BOUND('',#221,.T.);
#284=FACE_BOUND('',#222,.T.);
#285=FACE_BOUND('',#223,.T.);
#286=FACE_BOUND('',#224,.T.);
#287=FACE_BOUND('',#225,.T.);
#288=FACE_BOUND('',#226,.T.);
#289=FACE_BOUND('',#227,.T.);
#290=FACE_BOUND('',#228,.T.);
#291=FACE_BOUND('',#229,.T.);
#292=FACE_BOUND('',#230,.T.);
#293=FACE_BOUND('',#231,.T.);
#294=FACE_BOUND('',#232,.T.);
#295=FACE_BOUND('',#233,.T.);
#296=FACE_BOUND('',#234,.T.);
#297=FACE_BOUND('',#235,.T.);
#298=FACE_BOUND('',#236,.T.);
#299=FACE_BOUND('',#237,.T.);
#300=FACE_BOUND('',#238,.T.);
#301=FACE_BOUND('',#239,.T.);
#302=FACE_BOUND('',#240,.T.);
#303=FACE_BOUND('',#241,.T.);
#304=FACE_BOUND('',#242,.T.);
#305=FACE_BOUND('',#243,.T.);
#306=FACE_BOUND('',#244,.T.);
#307=FACE_BOUND('',#245,.T.);
#308=FACE_BOUND('',#246,.T.);
#309=FACE_BOUND('',#247,.T.);
#310=FACE_BOUND('',#248,.T.);
#311=FACE_BOUND('',#249,.T.);
#312=FACE_BOUND('',#250,.T.);
#313=FACE_BOUND('',#251,.T.);
#314=FACE_BOUND('',#252,.T.);
#315=FACE_BOUND('',#253,.T.);
#316=FACE_BOUND('',#254,.T.);
#317=FACE_BOUND('',#255,.T.);
#318=FACE_BOUND('',#256,.T.);
#319=FACE_BOUND('',#257,.T.);
#320=FACE_BOUND('',#258,.T.);
#321=FACE_BOUND('',#259,.T.);
#322=FACE_BOUND('',#260,.T.);
#323=FACE_BOUND('',#261,.T.);
#324=FACE_BOUND('',#262,.T.);
#325=FACE_BOUND('',#263,.T.);
#326=FACE_BOUND('',#264,.T.);
#327=FACE_BOUND('',#265,.T.);
#328=FACE_BOUND('',#266,.T.);
#329=FACE_BOUND('',#267,.T.);
#330=FACE_BOUND('',#268,.T.);
#331=FACE_BOUND('',#269,.T.);
#332=FACE_BOUND('',#270,.T.);
#333=FACE_BOUND('',#271,.T.);
#334=FACE_BOUND('',#272,.T.);
#335=FACE_BOUND('',#273,.T.);
#336=FACE_BOUND('',#274,.T.);
#337=CYLINDRICAL_SURFACE('',#386,7.5);
#338=CYLINDRICAL_SURFACE('',#389,4.);
#339=CYLINDRICAL_SURFACE('',#394,3.);
#340=CYLINDRICAL_SURFACE('',#403,5.95);
#341=CYLINDRICAL_SURFACE('',#412,1.725);
#342=CYLINDRICAL_SURFACE('',#417,1.59999999999998);
#343=CYLINDRICAL_SURFACE('',#422,1.59999999999999);
#344=CYLINDRICAL_SURFACE('',#427,1.2);
#345=CYLINDRICAL_SURFACE('',#429,1.2);
#346=CYLINDRICAL_SURFACE('',#438,1.19999999999999);
#347=CYLINDRICAL_SURFACE('',#447,1.19999999999999);
#348=ADVANCED_FACE('',(#275,#276,#277,#278),#337,.T.);
#349=ADVANCED_FACE('',(#279,#280,#281,#282),#338,.T.);
#350=ADVANCED_FACE('',(#283),#30,.F.);
#351=ADVANCED_FACE('',(#284,#285),#339,.T.);
#352=ADVANCED_FACE('',(#286,#287),#26,.F.);
#353=ADVANCED_FACE('',(#288,#289),#31,.F.);
#354=ADVANCED_FACE('',(#290,#291),#32,.F.);
#355=ADVANCED_FACE('',(#292,#293),#22,.F.);
#356=ADVANCED_FACE('',(#294,#295),#340,.T.);
#357=ADVANCED_FACE('',(#296,#297),#27,.T.);
#358=ADVANCED_FACE('',(#298,#299),#33,.F.);
#359=ADVANCED_FACE('',(#300,#301),#28,.T.);
#360=ADVANCED_FACE('',(#302,#303),#34,.F.);
#361=ADVANCED_FACE('',(#304,#305),#341,.F.);
#362=ADVANCED_FACE('',(#306,#307),#29,.T.);
#363=ADVANCED_FACE('',(#308),#35,.F.);
#364=ADVANCED_FACE('',(#309,#310),#342,.F.);
#365=ADVANCED_FACE('',(#311,#312),#36,.T.);
#366=ADVANCED_FACE('',(#313),#20,.T.);
#367=ADVANCED_FACE('',(#314,#315),#343,.F.);
#368=ADVANCED_FACE('',(#316,#317),#37,.T.);
#369=ADVANCED_FACE('',(#318),#21,.T.);
#370=ADVANCED_FACE('',(#319,#320),#344,.T.);
#371=ADVANCED_FACE('',(#321,#322),#345,.T.);
#372=ADVANCED_FACE('',(#323,#324),#23,.T.);
#373=ADVANCED_FACE('',(#325,#326),#24,.T.);
#374=ADVANCED_FACE('',(#327),#38,.F.);
#375=ADVANCED_FACE('',(#328,#329),#346,.T.);
#376=ADVANCED_FACE('',(#330,#331),#25,.T.);
#377=ADVANCED_FACE('',(#332),#39,.F.);
#378=ADVANCED_FACE('',(#333),#40,.T.);
#379=ADVANCED_FACE('',(#334,#335),#347,.T.);
#380=ADVANCED_FACE('',(#336),#41,.F.);
#381=CLOSED_SHELL('',(#348,#349,#350,#351,#352,#353,#354,#355,#356,#357,
#358,#359,#360,#361,#362,#363,#364,#365,#366,#367,#368,#369,#370,#371,#372,
#373,#374,#375,#376,#377,#378,#379,#380));
#382=MANIFOLD_SOLID_BREP('03194-01508070ENTRIEGELN',#381);
#383=SHAPE_DEFINITION_REPRESENTATION(#725,#384);
#384=SHAPE_REPRESENTATION('03194-01508070ENTRIEGELN',(#385),#720);
#385=AXIS2_PLACEMENT_3D('',#580,#450,#451);
#386=AXIS2_PLACEMENT_3D('',#581,#452,#453);
#387=AXIS2_PLACEMENT_3D('',#582,#454,#455);
#388=AXIS2_PLACEMENT_3D('',#584,#456,#457);
#389=AXIS2_PLACEMENT_3D('',#610,#458,#459);
#390=AXIS2_PLACEMENT_3D('',#611,#460,#461);
#391=AXIS2_PLACEMENT_3D('',#613,#462,#463);
#392=AXIS2_PLACEMENT_3D('',#639,#464,#465);
#393=AXIS2_PLACEMENT_3D('',#640,#466,#467);
#394=AXIS2_PLACEMENT_3D('',#642,#468,#469);
#395=AXIS2_PLACEMENT_3D('',#643,#470,#471);
#396=AXIS2_PLACEMENT_3D('',#645,#472,#473);
#397=AXIS2_PLACEMENT_3D('',#646,#474,#475);
#398=AXIS2_PLACEMENT_3D('',#648,#476,#477);
#399=AXIS2_PLACEMENT_3D('',#649,#478,#479);
#400=AXIS2_PLACEMENT_3D('',#650,#480,#481);
#401=AXIS2_PLACEMENT_3D('',#652,#482,#483);
#402=AXIS2_PLACEMENT_3D('',#653,#484,#485);
#403=AXIS2_PLACEMENT_3D('',#655,#486,#487);
#404=AXIS2_PLACEMENT_3D('',#656,#488,#489);
#405=AXIS2_PLACEMENT_3D('',#658,#490,#491);
#406=AXIS2_PLACEMENT_3D('',#659,#492,#493);
#407=AXIS2_PLACEMENT_3D('',#661,#494,#495);
#408=AXIS2_PLACEMENT_3D('',#662,#496,#497);
#409=AXIS2_PLACEMENT_3D('',#663,#498,#499);
#410=AXIS2_PLACEMENT_3D('',#665,#500,#501);
#411=AXIS2_PLACEMENT_3D('',#666,#502,#503);
#412=AXIS2_PLACEMENT_3D('',#668,#504,#505);
#413=AXIS2_PLACEMENT_3D('',#669,#506,#507);
#414=AXIS2_PLACEMENT_3D('',#671,#508,#509);
#415=AXIS2_PLACEMENT_3D('',#672,#510,#511);
#416=AXIS2_PLACEMENT_3D('',#674,#512,#513);
#417=AXIS2_PLACEMENT_3D('',#675,#514,#515);
#418=AXIS2_PLACEMENT_3D('',#676,#516,#517);
#419=AXIS2_PLACEMENT_3D('',#678,#518,#519);
#420=AXIS2_PLACEMENT_3D('',#679,#520,#521);
#421=AXIS2_PLACEMENT_3D('',#681,#522,#523);
#422=AXIS2_PLACEMENT_3D('',#682,#524,#525);
#423=AXIS2_PLACEMENT_3D('',#683,#526,#527);
#424=AXIS2_PLACEMENT_3D('',#685,#528,#529);
#425=AXIS2_PLACEMENT_3D('',#686,#530,#531);
#426=AXIS2_PLACEMENT_3D('',#688,#532,#533);
#427=AXIS2_PLACEMENT_3D('',#689,#534,#535);
#428=AXIS2_PLACEMENT_3D('',#690,#536,#537);
#429=AXIS2_PLACEMENT_3D('',#692,#538,#539);
#430=AXIS2_PLACEMENT_3D('',#693,#540,#541);
#431=AXIS2_PLACEMENT_3D('',#695,#542,#543);
#432=AXIS2_PLACEMENT_3D('',#696,#544,#545);
#433=AXIS2_PLACEMENT_3D('',#698,#546,#547);
#434=AXIS2_PLACEMENT_3D('',#699,#548,#549);
#435=AXIS2_PLACEMENT_3D('',#701,#550,#551);
#436=AXIS2_PLACEMENT_3D('',#702,#552,#553);
#437=AXIS2_PLACEMENT_3D('',#705,#554,#555);
#438=AXIS2_PLACEMENT_3D('',#706,#556,#557);
#439=AXIS2_PLACEMENT_3D('',#707,#558,#559);
#440=AXIS2_PLACEMENT_3D('',#708,#560,#561);
#441=AXIS2_PLACEMENT_3D('',#709,#562,#563);
#442=AXIS2_PLACEMENT_3D('',#712,#564,#565);
#443=AXIS2_PLACEMENT_3D('',#713,#566,#567);
#444=AXIS2_PLACEMENT_3D('',#714,#568,#569);
#445=AXIS2_PLACEMENT_3D('',#715,#570,#571);
#446=AXIS2_PLACEMENT_3D('',#716,#572,#573);
#447=AXIS2_PLACEMENT_3D('',#717,#574,#575);
#448=AXIS2_PLACEMENT_3D('',#718,#576,#577);
#449=AXIS2_PLACEMENT_3D('',#719,#578,#579);
#450=DIRECTION('',(0.,0.,1.));
#451=DIRECTION('',(1.,0.,0.));
#452=DIRECTION('',(0.,-1.,0.));
#453=DIRECTION('',(0.,0.,-1.));
#454=DIRECTION('',(0.,-1.,0.));
#455=DIRECTION('',(0.,0.,-1.));
#456=DIRECTION('',(0.,-1.,0.));
#457=DIRECTION('',(0.,0.,-1.));
#458=DIRECTION('',(0.,-1.,0.));
#459=DIRECTION('',(0.,0.,-1.));
#460=DIRECTION('',(0.,-1.,0.));
#461=DIRECTION('',(0.,0.,-1.));
#462=DIRECTION('',(0.,-1.,0.));
#463=DIRECTION('',(0.,0.,-1.));
#464=DIRECTION('',(0.,-1.,0.));
#465=DIRECTION('',(0.,0.,-1.));
#466=DIRECTION('',(0.,-1.,0.));
#467=DIRECTION('',(0.,0.,-1.));
#468=DIRECTION('',(0.,-1.,0.));
#469=DIRECTION('',(0.,0.,-1.));
#470=DIRECTION('',(0.,-1.,0.));
#471=DIRECTION('',(0.,0.,-1.));
#472=DIRECTION('',(0.,1.,0.));
#473=DIRECTION('',(0.,0.,1.));
#474=DIRECTION('',(0.,-1.,0.));
#475=DIRECTION('',(0.,0.,-1.));
#476=DIRECTION('',(0.,-1.,0.));
#477=DIRECTION('',(0.,0.,-1.));
#478=DIRECTION('',(0.,1.,0.));
#479=DIRECTION('',(0.,0.,1.));
#480=DIRECTION('',(0.,-1.,0.));
#481=DIRECTION('',(0.,0.,-1.));
#482=DIRECTION('',(0.,-1.,0.));
#483=DIRECTION('',(0.,0.,-1.));
#484=DIRECTION('',(0.,-1.,0.));
#485=DIRECTION('',(0.,0.,-1.));
#486=DIRECTION('',(0.,-1.,0.));
#487=DIRECTION('',(0.,0.,-1.));
#488=DIRECTION('',(0.,-1.,0.));
#489=DIRECTION('',(0.,0.,-1.));
#490=DIRECTION('',(0.,1.,0.));
#491=DIRECTION('',(0.,0.,1.));
#492=DIRECTION('',(0.,-1.,0.));
#493=DIRECTION('',(0.,0.,-1.));
#494=DIRECTION('',(0.,1.,0.));
#495=DIRECTION('',(0.,0.,1.));
#496=DIRECTION('',(0.,1.,0.));
#497=DIRECTION('',(0.,0.,1.));
#498=DIRECTION('',(0.,-1.,0.));
#499=DIRECTION('',(0.,0.,-1.));
#500=DIRECTION('',(0.,1.,0.));
#501=DIRECTION('',(0.,0.,1.));
#502=DIRECTION('',(0.,-1.,0.));
#503=DIRECTION('',(0.,0.,-1.));
#504=DIRECTION('',(0.,-1.,0.));
#505=DIRECTION('',(0.,0.,-1.));
#506=DIRECTION('',(0.,-1.,0.));
#507=DIRECTION('',(0.,0.,-1.));
#508=DIRECTION('',(0.,1.,0.));
#509=DIRECTION('',(0.,0.,1.));
#510=DIRECTION('',(0.,-1.,0.));
#511=DIRECTION('',(0.,0.,-1.));
#512=DIRECTION('',(0.,1.,0.));
#513=DIRECTION('',(0.,0.,1.));
#514=DIRECTION('',(1.,1.07788643167491E-14,0.));
#515=DIRECTION('',(-1.07788643167491E-14,1.,0.));
#516=DIRECTION('',(1.,1.07788643167491E-14,0.));
#517=DIRECTION('',(-1.07788643167491E-14,1.,0.));
#518=DIRECTION('',(-1.,-1.07788643167491E-14,0.));
#519=DIRECTION('',(1.07788643167491E-14,-1.,0.));
#520=DIRECTION('',(-1.,-1.07788643167491E-14,0.));
#521=DIRECTION('',(1.07788643167491E-14,-1.,0.));
#522=DIRECTION('',(1.,0.,0.));
#523=DIRECTION('',(0.,0.,-1.));
#524=DIRECTION('',(1.,0.,0.));
#525=DIRECTION('',(0.,0.,-1.));
#526=DIRECTION('',(1.,0.,0.));
#527=DIRECTION('',(0.,0.,-1.));
#528=DIRECTION('',(1.,0.,0.));
#529=DIRECTION('',(0.,0.,-1.));
#530=DIRECTION('',(1.,0.,0.));
#531=DIRECTION('',(0.,0.,-1.));
#532=DIRECTION('',(1.,0.,0.));
#533=DIRECTION('',(0.,0.,1.));
#534=DIRECTION('',(1.,0.,0.));
#535=DIRECTION('',(0.,0.,-1.));
#536=DIRECTION('',(1.,0.,0.));
#537=DIRECTION('',(0.,0.,-1.));
#538=DIRECTION('',(1.,0.,0.));
#539=DIRECTION('',(0.,0.,-1.));
#540=DIRECTION('',(1.,0.,0.));
#541=DIRECTION('',(0.,0.,-1.));
#542=DIRECTION('',(0.,0.,1.));
#543=DIRECTION('',(1.,0.,0.));
#544=DIRECTION('',(-0.226651307436855,0.973975967279052,0.));
#545=DIRECTION('',(0.,0.,-1.));
#546=DIRECTION('',(0.,0.,1.));
#547=DIRECTION('',(1.,0.,0.));
#548=DIRECTION('',(-0.226651307436855,-0.973975967279052,0.));
#549=DIRECTION('',(0.,0.,-1.));
#550=DIRECTION('',(0.226651307436855,-0.973975967279052,0.));
#551=DIRECTION('',(0.973975967279052,0.226651307436855,0.));
#552=DIRECTION('',(0.226651307436855,-0.973975967279052,0.));
#553=DIRECTION('',(0.973975967279052,0.226651307436855,0.));
#554=DIRECTION('',(0.226651307436855,-0.973975967279052,0.));
#555=DIRECTION('',(0.,0.,-1.));
#556=DIRECTION('',(0.226651307436855,-0.973975967279052,0.));
#557=DIRECTION('',(0.973975967279052,0.226651307436855,0.));
#558=DIRECTION('',(0.226651307436855,-0.973975967279052,0.));
#559=DIRECTION('',(0.973975967279052,0.226651307436855,0.));
#560=DIRECTION('',(0.,0.,-1.));
#561=DIRECTION('',(-1.,0.,0.));
#562=DIRECTION('',(0.226651307436855,0.973975967279052,0.));
#563=DIRECTION('',(0.,0.,-1.));
#564=DIRECTION('',(0.226651307436855,0.973975967279052,0.));
#565=DIRECTION('',(0.,0.,-1.));
#566=DIRECTION('',(0.226651307436855,-0.973975967279052,0.));
#567=DIRECTION('',(0.,0.,-1.));
#568=DIRECTION('',(0.226651307436855,0.973975967279052,0.));
#569=DIRECTION('',(0.,0.,-1.));
#570=DIRECTION('',(0.226651307436855,0.973975967279052,0.));
#571=DIRECTION('',(-0.973975967279052,0.226651307436855,0.));
#572=DIRECTION('',(0.226651307436855,-0.973975967279052,0.));
#573=DIRECTION('',(0.,0.,-1.));
#574=DIRECTION('',(0.226651307436855,0.973975967279052,0.));
#575=DIRECTION('',(-0.973975967279052,0.226651307436855,0.));
#576=DIRECTION('',(0.226651307436855,0.973975967279052,0.));
#577=DIRECTION('',(-0.973975967279052,0.226651307436855,0.));
#578=DIRECTION('',(-0.226651307436855,-0.973975967279052,0.));
#579=DIRECTION('',(0.973975967279052,-0.226651307436855,0.));
#580=CARTESIAN_POINT('',(0.,0.,0.));
#581=CARTESIAN_POINT('',(0.,-78.,0.));
#582=CARTESIAN_POINT('',(0.,14.47,0.));
#583=CARTESIAN_POINT('',(0.,14.47,-7.5));
#584=CARTESIAN_POINT('',(0.,19.24,0.));
#585=CARTESIAN_POINT('',(0.,19.24,-7.5));
#586=CARTESIAN_POINT('',(7.45211925733746,15.9136532844444,-0.939546865750727));
#587=CARTESIAN_POINT('',(7.37902859877747,16.8552245806496,-1.33015727945622));
#588=CARTESIAN_POINT('',(7.45203199286371,17.7954483929573,-0.939824016424388));
#589=CARTESIAN_POINT('',(7.5239809103584,18.1847217081465,-0.00114437925129289));
#590=CARTESIAN_POINT('',(7.45204417816195,17.7956636023268,0.94029316788588));
#591=CARTESIAN_POINT('',(7.3790908954301,16.8553386867907,1.3295940829561));
#592=CARTESIAN_POINT('',(7.45185797374871,15.9157827929558,0.941329955400884));
#593=CARTESIAN_POINT('',(7.52400559534019,15.5251415862017,0.00103070519531582));
#594=CARTESIAN_POINT('',(7.45211925733746,15.9136532844444,-0.939546865750727));
#595=CARTESIAN_POINT('',(7.37902859877747,16.8552245806496,-1.33015727945622));
#596=CARTESIAN_POINT('',(7.45203199286371,17.7954483929573,-0.939824016424388));
#597=CARTESIAN_POINT('',(7.40337760755184,16.855,-1.2));
#598=CARTESIAN_POINT('',(-7.45211925733746,17.7963467155556,-0.939546865750732));
#599=CARTESIAN_POINT('',(-7.37902859877747,16.8547754193504,-1.33015727945622));
#600=CARTESIAN_POINT('',(-7.45203199286371,15.9145516070427,-0.939824016424388));
#601=CARTESIAN_POINT('',(-7.5239809103584,15.5252782918535,-0.00114437925129226));
#602=CARTESIAN_POINT('',(-7.45204417816195,15.9143363976732,0.940293167885879));
#603=CARTESIAN_POINT('',(-7.3790908954301,16.8546613132093,1.3295940829561));
#604=CARTESIAN_POINT('',(-7.45185797374871,17.7942172070442,0.941329955400884));
#605=CARTESIAN_POINT('',(-7.52400559534018,18.1848584137983,0.00103070519531697));
#606=CARTESIAN_POINT('',(-7.45211925733746,17.7963467155556,-0.939546865750732));
#607=CARTESIAN_POINT('',(-7.37902859877747,16.8547754193504,-1.33015727945622));
#608=CARTESIAN_POINT('',(-7.45203199286371,15.9145516070427,-0.939824016424388));
#609=CARTESIAN_POINT('',(-7.40337760755184,16.855,-1.2));
#610=CARTESIAN_POINT('',(0.,-78.,0.));
#611=CARTESIAN_POINT('',(0.,0.,0.));
#612=CARTESIAN_POINT('',(0.,0.,-4.));
#613=CARTESIAN_POINT('',(0.,-76.425,0.));
#614=CARTESIAN_POINT('',(0.,-76.425,-4.));
#615=CARTESIAN_POINT('',(-3.83987493998339,-70.3472449225394,1.2551546517333));
#616=CARTESIAN_POINT('',(-4.08002311286979,-69.8262339983446,-0.000181637986292326));
#617=CARTESIAN_POINT('',(-3.84003260853748,-70.3478190840824,-1.25442809978813));
#618=CARTESIAN_POINT('',(-3.57907061897884,-71.5968665395926,-1.77293203893687));
#619=CARTESIAN_POINT('',(-3.84005092328249,-72.8538728826225,-1.25383762226168));
#620=CARTESIAN_POINT('',(-4.07991745940551,-73.3731551613353,-0.00265335643226464));
#621=CARTESIAN_POINT('',(-3.84027717551393,-72.8535013130811,1.2544985654134));
#622=CARTESIAN_POINT('',(-3.57905302330092,-71.6013626711294,1.77258619568955));
#623=CARTESIAN_POINT('',(-3.83987493998339,-70.3472449225394,1.2551546517333));
#624=CARTESIAN_POINT('',(-4.08002311286979,-69.8262339983446,-0.000181637986292326));
#625=CARTESIAN_POINT('',(-3.84003260853748,-70.3478190840824,-1.25442809978813));
#626=CARTESIAN_POINT('',(-4.,-70.,0.));
#627=CARTESIAN_POINT('',(3.84068599405332,-72.8552490578555,-1.2529690329992));
#628=CARTESIAN_POINT('',(3.57887975539432,-71.5994482275631,-1.77341162598971));
#629=CARTESIAN_POINT('',(3.84015832015746,-70.346958031892,-1.2533844630419));
#630=CARTESIAN_POINT('',(4.07988713771407,-69.8264994628604,-0.00327994663389222));
#631=CARTESIAN_POINT('',(3.84029018331919,-70.3470514808366,1.25461341227187));
#632=CARTESIAN_POINT('',(3.57909095025457,-71.5965693027051,1.77255114837757));
#633=CARTESIAN_POINT('',(3.83971369362012,-72.8528501688574,1.25517204505133));
#634=CARTESIAN_POINT('',(4.07989941993524,-73.3729735479553,0.00225954169716767));
#635=CARTESIAN_POINT('',(3.84068599405332,-72.8552490578555,-1.2529690329992));
#636=CARTESIAN_POINT('',(3.57887975539432,-71.5994482275631,-1.77341162598971));
#637=CARTESIAN_POINT('',(3.84015832015746,-70.346958031892,-1.2533844630419));
#638=CARTESIAN_POINT('',(3.66606055596468,-71.6,-1.59999999999999));
#639=CARTESIAN_POINT('',(0.,19.24,0.));
#640=CARTESIAN_POINT('',(0.,19.24,0.));
#641=CARTESIAN_POINT('',(0.,19.24,-3.));
#642=CARTESIAN_POINT('',(0.,-78.,0.));
#643=CARTESIAN_POINT('',(0.,18.94,0.));
#644=CARTESIAN_POINT('',(0.,18.94,-3.));
#645=CARTESIAN_POINT('',(0.,18.94,0.));
#646=CARTESIAN_POINT('',(0.,19.24,0.));
#647=CARTESIAN_POINT('',(0.,19.24,-3.3));
#648=CARTESIAN_POINT('',(3.3,19.24,0.));
#649=CARTESIAN_POINT('',(7.5,14.47,0.));
#650=CARTESIAN_POINT('',(0.,14.47,0.));
#651=CARTESIAN_POINT('',(0.,14.47,-6.73));
#652=CARTESIAN_POINT('',(0.,13.69,0.));
#653=CARTESIAN_POINT('',(0.,13.69,0.));
#654=CARTESIAN_POINT('',(0.,13.69,-5.95));
#655=CARTESIAN_POINT('',(0.,-78.,0.));
#656=CARTESIAN_POINT('',(0.,3.59,0.));
#657=CARTESIAN_POINT('',(0.,3.59,-5.95));
#658=CARTESIAN_POINT('',(0.,3.59,0.));
#659=CARTESIAN_POINT('',(0.,0.,0.));
#660=CARTESIAN_POINT('',(0.,0.,-5.72476539099662));
#661=CARTESIAN_POINT('',(5.72476539099662,0.,0.));
#662=CARTESIAN_POINT('',(0.,-76.425,0.));
#663=CARTESIAN_POINT('',(0.,-78.,0.));
#664=CARTESIAN_POINT('',(0.,-78.,-3.42674688103073));
#665=CARTESIAN_POINT('',(3.42674688103073,-78.,0.));
#666=CARTESIAN_POINT('',(0.,-78.,0.));
#667=CARTESIAN_POINT('',(0.,-78.,-1.725));
#668=CARTESIAN_POINT('',(0.,-78.,0.));
#669=CARTESIAN_POINT('',(0.,-77.8,0.));
#670=CARTESIAN_POINT('',(0.,-77.8,-1.725));
#671=CARTESIAN_POINT('',(0.,-77.8,0.));
#672=CARTESIAN_POINT('',(0.,-78.,0.));
#673=CARTESIAN_POINT('',(0.,-78.,-1.525));
#674=CARTESIAN_POINT('',(1.525,-78.,0.));
#675=CARTESIAN_POINT('',(-1.42500000000001,-71.6,0.));
#676=CARTESIAN_POINT('',(-1.42499999999999,-71.6,0.));
#677=CARTESIAN_POINT('',(-1.42500000000001,-70.,0.));
#678=CARTESIAN_POINT('',(-1.42500000000002,-70.,0.));
#679=CARTESIAN_POINT('',(-1.425,-71.6,2.16840434497101E-16));
#680=CARTESIAN_POINT('',(-1.42499999999999,-72.8168093523638,2.16840434497101E-16));
#681=CARTESIAN_POINT('',(-2.425,-71.6,2.16840434497101E-16));
#682=CARTESIAN_POINT('',(4.,-71.6,0.));
#683=CARTESIAN_POINT('',(1.42500000000001,-71.6,0.));
#684=CARTESIAN_POINT('',(1.42500000000001,-71.6,-1.59999999999999));
#685=CARTESIAN_POINT('',(1.42500000000001,-71.6,0.));
#686=CARTESIAN_POINT('',(1.42500000000001,-71.6,0.));
#687=CARTESIAN_POINT('',(1.42500000000001,-71.6,-1.2168093523638));
#688=CARTESIAN_POINT('',(2.425,-71.6,0.));
#689=CARTESIAN_POINT('',(9.6,16.855,0.));
#690=CARTESIAN_POINT('',(9.6,16.855,0.));
#691=CARTESIAN_POINT('',(9.6,16.855,-1.2));
#692=CARTESIAN_POINT('',(9.6,16.855,0.));
#693=CARTESIAN_POINT('',(-9.6,16.855,0.));
#694=CARTESIAN_POINT('',(-9.6,16.855,-1.2));
#695=CARTESIAN_POINT('',(9.6,20.805,0.));
#696=CARTESIAN_POINT('',(13.4472050707523,21.7002726643756,0.));
#697=CARTESIAN_POINT('',(13.4472050707523,21.7002726643756,-1.2));
#698=CARTESIAN_POINT('',(-9.6,20.805,0.));
#699=CARTESIAN_POINT('',(-13.4472050707523,21.7002726643756,0.));
#700=CARTESIAN_POINT('',(-13.4472050707523,21.7002726643756,-1.2));
#701=CARTESIAN_POINT('',(12.4893603351257,25.8163651918582,0.));
#702=CARTESIAN_POINT('',(12.4893603351257,25.8163651918582,0.));
#703=CARTESIAN_POINT('',(12.4245576799485,25.8012851416159,-1.19815408356633));
#704=CARTESIAN_POINT('',(12.4245576799485,25.8012851416159,1.19815408356632));
#705=CARTESIAN_POINT('',(12.3597550247712,25.7862050913737,0.));
#706=CARTESIAN_POINT('',(13.4472050707523,21.7002726643756,0.));
#707=CARTESIAN_POINT('',(12.4893603351257,25.8163651918582,0.));
#708=CARTESIAN_POINT('',(0.,22.91,0.));
#709=CARTESIAN_POINT('',(-12.3597550247712,25.7862050913737,0.));
#710=CARTESIAN_POINT('',(-12.4245576799485,25.8012851416159,-1.19815408356632));
#711=CARTESIAN_POINT('',(-12.4245576799485,25.8012851416159,1.19815408356632));
#712=CARTESIAN_POINT('',(-12.3597550247712,25.7862050913737,0.));
#713=CARTESIAN_POINT('',(12.3597550247712,25.7862050913737,0.));
#714=CARTESIAN_POINT('',(-12.3597550247712,25.7862050913737,0.));
#715=CARTESIAN_POINT('',(-12.4893603351257,25.8163651918582,0.));
#716=CARTESIAN_POINT('',(12.3597550247712,25.7862050913737,0.));
#717=CARTESIAN_POINT('',(-12.4893603351257,25.8163651918582,0.));
#718=CARTESIAN_POINT('',(-12.4893603351257,25.8163651918582,0.));
#719=CARTESIAN_POINT('',(-13.6581314958606,26.0883467607824,0.));
#720=(
GEOMETRIC_REPRESENTATION_CONTEXT(3)
GLOBAL_UNCERTAINTY_ASSIGNED_CONTEXT((#721))
GLOBAL_UNIT_ASSIGNED_CONTEXT((#724,#723,#722))
REPRESENTATION_CONTEXT('03194-01508070ENTRIEGELN',
'TOP_LEVEL_ASSEMBLY_PART')
);
#721=UNCERTAINTY_MEASURE_WITH_UNIT(LENGTH_MEASURE(1.E-5),#724,
'DISTANCE_ACCURACY_VALUE','Maximum Tolerance applied to model');
#722=(
NAMED_UNIT(*)
SI_UNIT($,.STERADIAN.)
SOLID_ANGLE_UNIT()
);
#723=(
NAMED_UNIT(*)
PLANE_ANGLE_UNIT()
SI_UNIT($,.RADIAN.)
);
#724=(
LENGTH_UNIT()
NAMED_UNIT(*)
SI_UNIT(.MILLI.,.METRE.)
);
#725=PRODUCT_DEFINITION_SHAPE('','',#726);
#726=PRODUCT_DEFINITION('','',#728,#727);
#727=DESIGN_CONTEXT('',#734,'design');
#728=PRODUCT_DEFINITION_FORMATION_WITH_SPECIFIED_SOURCE('','',#730,
 .NOT_KNOWN.);
#729=PRODUCT_RELATED_PRODUCT_CATEGORY('','',(#730));
#730=PRODUCT('03194-01508070ENTRIEGELN','03194-01508070ENTRIEGELN',
'03194-01508070ENTRIEGELN',(#732));
#731=PRODUCT_CATEGORY('','');
#732=MECHANICAL_CONTEXT('',#734,'mechanical');
#733=APPLICATION_PROTOCOL_DEFINITION('international standard',
'config_control_design',2010,#734);
#734=APPLICATION_CONTEXT(
'configuration controlled 3D designs of mechanical parts and assemblie
s');
ENDSEC;
END-ISO-10303-21;
